Coordinates
version=1
nRows=11
nColumns=33
inDegrees=yes

Units are S.I. units (second, meters, Newtons, ...)
Angles are in degrees.

endheader
time	ground_thorax_rot_x	ground_thorax_rot_y	ground_thorax_rot_z	ground_thorax_tx	ground_thorax_ty	ground_thorax_tz	clav_prot_r	clav_elev_r	scapula_abduction_r	scapula_elevation_r	scapula_upward_rot_r	scapula_winging_r	shoulder_elv_r	plane_of_elev_r	axial_rot_r	elbow_flexion_r	pro_sup_r	wrist_flex_r	wrist_dev_r	clav_prot_l	clav_elev_l	scapula_abduction_l	scapula_elevation_l	scapula_upward_rot_l	scapula_winging_l	shoulder_elv_l	plane_of_elev_l	axial_rot_l	elbow_flexion_l	pro_sup_l	wrist_flex_l	wrist_dev_l	
12.0600	35.180290	19.605032	25.885394	55.179602	801.650539	-46.331130	11.737091	40.297292	32.709645	44.991896	-29.163083	1359.483042	1145.750103	22.055075	-179.999427	1438.193803	531.378680	13.246461	14.732976	-9.801540	-45.000000	-45.000000	45.000000	-45.000000	5127.803256	-3511.162315	17.350599	-180.000000	2160.239392	-170.723686	13.340014	-14.659947	
12.0700	35.209755	19.706955	25.823865	56.998255	800.470657	-46.136820	11.715340	40.362939	32.745241	44.985430	-29.088340	1359.603886	1145.662205	22.014667	-179.998974	1438.249091	531.775201	13.179746	14.690238	-9.903395	-45.000000	-45.000000	45.000000	-45.000000	5127.600244	-3511.294822	17.291319	-180.000000	2160.291401	-170.819954	13.354469	-14.567708	
12.0800	35.249319	19.789834	25.735609	58.797012	799.289414	-45.942213	11.711116	40.439910	32.790259	44.974052	-28.981327	1359.707413	1145.562158	21.977836	-179.998160	1438.314139	532.179470	13.107722	14.643926	-10.019654	-45.000000	-45.000000	45.000000	-45.000000	5127.384206	-3511.420095	17.229405	-180.000000	2160.332952	-170.942911	13.359931	-14.477836	
12.0900	35.296201	19.854871	25.626585	60.573194	798.109091	-45.749764	11.698144	40.510864	32.851446	44.953097	-28.870161	1359.796282	1145.464323	21.945303	-179.996710	1438.379983	532.593001	13.034304	14.596096	-10.137112	-45.000000	-45.000000	45.000000	-45.000000	5127.166601	-3511.540260	17.179410	-180.000000	2160.382922	-171.091227	13.366733	-14.383442	
12.1000	35.337981	19.912492	25.513911	62.324522	796.931201	-45.561838	11.687221	40.570810	32.912518	44.917164	-28.741460	1359.878033	1145.369561	21.910119	-179.994091	1438.452115	533.015713	12.955167	14.544914	-10.257688	-45.000000	-45.000000	45.000000	-45.000000	5126.947699	-3511.654877	17.125925	-180.000000	2160.430021	-171.267303	13.370519	-14.286812	
12.1100	35.385569	19.940161	25.368678	64.047725	795.757426	-45.380822	11.678857	40.625554	32.996459	44.848322	-28.578232	1359.923130	1145.275584	21.882459	-179.989461	1438.529406	533.452115	12.875052	14.487652	-10.385151	-45.000000	-45.000000	45.000000	-45.000000	5126.725752	-3511.753802	17.082007	-180.000000	2160.472636	-171.471981	13.370894	-14.191509	
12.1200	35.425066	19.947159	25.207797	65.740002	794.588897	-45.208924	11.663877	40.653231	33.090391	44.737498	-28.375987	1359.940016	1145.189577	21.854369	-179.980993	1438.613796	533.906699	12.791757	14.425417	-10.517342	-45.000000	-45.000000	45.000000	-45.000000	5126.507326	-3511.834025	17.040457	-180.000000	2160.505124	-171.707941	13.366917	-14.097331	
12.1300	35.465507	19.919388	25.012807	67.398301	793.426892	-45.048195	11.646869	40.654253	33.210139	44.579620	-28.134920	1359.914818	1145.109576	21.831712	-179.966311	1438.700390	534.381255	12.709308	14.361843	-10.653515	-45.000000	-45.000000	45.000000	-45.000000	5126.291707	-3511.893315	17.012496	-180.000000	2160.530721	-171.973019	13.361103	-14.004757	
12.1400	35.482749	19.892054	24.829516	69.020212	792.272611	-44.900269	11.617833	40.590883	33.313460	44.380707	-27.866398	1359.874588	1145.044834	21.807467	-179.938653	1438.792607	534.869474	12.620610	14.295185	-10.786494	-45.000000	-45.000000	45.000000	-45.000000	5126.086141	-3511.937617	16.978283	-180.000000	2160.552175	-172.262563	13.350222	-13.911106	
12.1500	35.480294	19.865298	24.659474	70.603903	791.127537	-44.766216	11.574010	40.515151	33.409392	44.152784	-27.595383	1359.830586	1144.997336	21.774147	-179.892904	1438.884356	535.358576	12.537286	14.230200	-10.912169	-45.000000	-45.000000	45.000000	-45.000000	5125.897088	-3511.973362	16.947386	-180.000000	2160.577121	-172.564292	13.344071	-13.816803	
12.1600	35.465945	19.839919	24.503087	72.148230	789.993641	-44.646381	11.520212	40.415541	33.509339	43.912135	-27.327877	1359.783723	1144.959030	21.730026	-179.811570	1438.979919	535.838271	12.454588	14.168241	-11.031626	-45.000000	-45.000000	45.000000	-45.000000	5125.718469	-3512.004163	16.915379	-180.000000	2160.608159	-172.869013	13.340166	-13.722649	
